<svg width="9" height="15" viewBox="0 0 9 15" fill="none" xmlns="http://www.w3.org/2000/svg">
<path d="M3.79699 14.4096H4.94373L4.94914 13.1709C7.26967 13.0033 8.60032 11.7267 8.60573 9.91463C8.60032 7.99438 7.01544 7.1181 5.34941 6.72323L4.99241 6.63127L5.01405 3.54264C5.87951 3.6941 6.43666 4.21338 6.5232 4.9923H8.45427C8.42182 3.27218 7.06953 2.01726 5.02487 1.82253L5.03027 0.562195H3.88353L3.87812 1.82253C1.84969 2.02808 0.389214 3.27218 0.394624 5.06262C0.394624 6.65291 1.52514 7.56706 3.34803 8.03766L3.83485 8.16207L3.81321 11.4346C2.84497 11.2832 2.14719 10.7314 2.07687 9.75236H0.102529C0.178257 11.7808 1.57382 12.987 3.80239 13.1709L3.79699 14.4096ZM4.95996 11.4346L4.98159 8.46498C5.96606 8.75167 6.59352 9.13031 6.59893 9.89841C6.59352 10.699 5.94983 11.2723 4.95996 11.4346ZM3.84567 6.33918C3.0992 6.10118 2.41765 5.70631 2.42847 4.93821C2.43388 4.24042 2.95857 3.69951 3.86731 3.54264L3.84567 6.33918Z" fill="#0D1B39"/>
</svg>
